<?xml version="1.0" encoding="UTF-8" standalone="no"?>
<!-- Created with Inkscape (http://www.inkscape.org/) -->

<svg
   version="1.1"
   id="svg2"
   width="1122.52"
   height="793.70667"
   viewBox="0 0 1122.52 793.70667"
   sodipodi:docname="GoT-x-Pandora-Logo-Landscape-Black-CMYK.ai"
   xmlns:inkscape="http://www.inkscape.org/namespaces/inkscape"
   xmlns:sodipodi="http://sodipodi.sourceforge.net/DTD/sodipodi-0.dtd"
   xmlns="http://www.w3.org/2000/svg"
   xmlns:svg="http://www.w3.org/2000/svg">
  <defs
     id="defs6">
    <clipPath
       clipPathUnits="userSpaceOnUse"
       id="clipPath28">
      <path
         d="M 0,595.28 H 841.89 V 0 H 0 Z"
         id="path26" />
    </clipPath>
  </defs>
  <sodipodi:namedview
     id="namedview4"
     pagecolor="#ffffff"
     bordercolor="#000000"
     borderopacity="0.25"
     inkscape:showpageshadow="2"
     inkscape:pageopacity="0.0"
     inkscape:pagecheckerboard="0"
     inkscape:deskcolor="#d1d1d1" />
  <g
     id="g8"
     inkscape:groupmode="layer"
     inkscape:label="GoT-x-Pandora-Logo-Landscape-Black-CMYK"
     transform="matrix(1.3333333,0,0,-1.3333333,0,793.70667)">
    <g
       id="g10"
       transform="translate(431.449,301.8966)">
      <path
         d="m 0,0 -5.844,-5.98 -5.845,5.98 -1.202,-1.202 5.845,-5.98 -5.845,-5.981 1.202,-1.202 5.845,5.981 5.844,-5.981 1.202,1.202 -5.872,5.981 5.872,5.98 z"
         style="fill:#1d1d1b;fill-opacity:1;fill-rule:nonzero;stroke:none"
         id="path12" />
    </g>
    <g
       id="g14"
       transform="translate(511.9803,308.0556)">
      <path
         d="m 0,0 -0.021,-0.021 -0.373,-3.567 0.021,-0.021 H 0.041 0.456 L 0.477,-3.588 0.125,-0.021 0.104,0 Z"
         style="fill:#1d1d1b;fill-opacity:1;fill-rule:nonzero;stroke:none"
         id="path16" />
    </g>
    <g
       id="g18"
       transform="translate(514.0341,304.2186)">
      <path
         d="M 0,0 0.021,0.021 0.622,3.215 0.602,3.236 0.498,3.257 0.477,3.236 -0.85,0.207 -0.83,0.187 Z"
         style="fill:#1d1d1b;fill-opacity:1;fill-rule:nonzero;stroke:none"
         id="path20" />
    </g>
    <g
       id="g22">
      <g
         id="g24"
         clip-path="url(#clipPath28)">
        <g
           id="g30"
           transform="translate(513.4119,302.8495)">
          <path
             d="M 0,0 C 0.249,0 0.477,0.207 0.477,0.498 0.477,0.767 0.249,0.975 0,0.975 -0.27,0.975 -0.498,0.767 -0.498,0.498 -0.498,0.207 -0.27,0 0,0"
             style="fill:#1d1d1b;fill-opacity:1;fill-rule:nonzero;stroke:none"
             id="path32" />
        </g>
        <g
           id="g34"
           transform="translate(512.022,302.9947)">
          <path
             d="M 0,0 C 0.249,0 0.477,0.207 0.477,0.498 0.477,0.767 0.249,0.975 0,0.975 -0.27,0.975 -0.498,0.767 -0.498,0.498 -0.498,0.207 -0.27,0 0,0"
             style="fill:#1d1d1b;fill-opacity:1;fill-rule:nonzero;stroke:none"
             id="path36" />
        </g>
        <g
           id="g38"
           transform="translate(510.01,304.2186)">
          <path
             d="M 0,0 0.83,0.187 0.851,0.207 -0.477,3.236 -0.498,3.257 -0.602,3.236 -0.622,3.215 -0.021,0.021 Z"
             style="fill:#1d1d1b;fill-opacity:1;fill-rule:nonzero;stroke:none"
             id="path40" />
        </g>
        <g
           id="g42"
           transform="translate(510.1345,303.3474)">
          <path
             d="m 0,0 c 0,-0.29 0.228,-0.498 0.498,-0.498 0.249,0 0.477,0.208 0.477,0.498 0,0.27 -0.228,0.477 -0.477,0.477 C 0.228,0.477 0,0.27 0,0"
             style="fill:#1d1d1b;fill-opacity:1;fill-rule:nonzero;stroke:none"
             id="path44" />
        </g>
        <g
           id="g46"
           transform="translate(453.4045,295.1747)">
          <path
             d="M 0,0 C -0.332,0 -1.079,0.041 -1.411,0.104 V 4.397 H 0.207 C 1.639,4.397 2.78,3.817 2.78,2.302 2.78,0.83 1.784,0 0,0 M 0.124,6.783 H -4.107 L -4.128,6.762 c 0,0 0.104,-1.016 0.104,-2.779 v -8.92 c 0,-1.763 -0.104,-2.779 -0.104,-2.779 l 0.021,-0.021 h 2.779 l 0.021,0.021 c 0,0 -0.104,1.016 -0.104,2.779 v 2.614 l 0.021,0.021 c 0.374,-0.042 1.224,-0.083 1.514,-0.083 2.863,0 5.311,1.742 5.311,4.687 0,2.863 -2.469,4.481 -5.311,4.481"
             style="fill:#1d1d1b;fill-opacity:1;fill-rule:nonzero;stroke:none"
             id="path48" />
        </g>
        <g
           id="g50"
           transform="translate(463.107,293.3701)">
          <path
             d="m 0,0 2.054,5.123 h 0.02 L 4.294,0 Z M 3.671,7.405 C 3.36,8.131 3.257,8.567 3.257,8.567 L 3.236,8.587 H 0.975 L 0.954,8.567 c 0,0 -0.083,-0.436 -0.394,-1.162 L -4.335,-4.377 c -0.415,-0.995 -0.83,-1.535 -0.83,-1.535 v -0.02 h 2.863 l 0.02,0.02 c 0,0.083 0.063,0.436 0.415,1.307 l 0.892,2.22 h 6.306 l 0.954,-2.22 c 0.311,-0.85 0.498,-1.307 0.498,-1.307 l 0.021,-0.02 h 2.862 v 0.02 c 0,0 -0.373,0.54 -0.83,1.535 z"
             style="fill:#1d1d1b;fill-opacity:1;fill-rule:nonzero;stroke:none"
             id="path52" />
        </g>
        <g
           id="g54"
           transform="translate(487.1013,301.9369)">
          <path
             d="m 0,0 -0.021,0.021 h -2.53 L -2.572,0 c 0,0 0.104,-1.016 0.104,-2.78 v -7.301 H -2.489 L -10.33,0.021 h -2.779 L -13.13,0 c 0.311,-0.664 0.477,-1.12 0.477,-1.431 v -10.268 c 0,-1.763 -0.104,-2.779 -0.104,-2.779 l 0.021,-0.021 h 2.531 l 0.02,0.021 c 0,0 -0.103,1.016 -0.103,2.779 v 7.447 h 0.02 l 7.883,-10.247 h 2.364 L 0,-14.478 c 0,0 -0.104,1.016 -0.104,2.779 V -2.78 C -0.104,-1.016 0,0 0,0"
             style="fill:#1d1d1b;fill-opacity:1;fill-rule:nonzero;stroke:none"
             id="path56" />
        </g>
        <g
           id="g58"
           transform="translate(494.8174,289.6987)">
          <path
             d="M 0,0 C -0.705,0 -1.348,0.021 -1.722,0.124 -1.95,0.187 -1.991,0.27 -1.991,0.664 v 9.23 h 1.929 C 3.07,9.894 5.082,7.778 5.082,4.958 5.082,2.157 3.07,0 0,0 m 0.166,12.259 h -4.854 l -0.021,-0.021 c 0,0 0.104,-1.016 0.104,-2.779 v -8.92 c 0,-1.763 -0.104,-2.779 -0.104,-2.779 l 0.021,-0.021 h 1.494 c 0.981,0 2.074,-0.124 3.318,-0.124 4.46,0 7.613,3.152 7.613,7.363 0,4.252 -3.091,7.281 -7.571,7.281"
             style="fill:#1d1d1b;fill-opacity:1;fill-rule:nonzero;stroke:none"
             id="path60" />
        </g>
        <g
           id="g62"
           transform="translate(512.022,289.6572)">
          <path
             d="m 0,0 c -2.697,0 -4.792,2.199 -4.792,5.061 0,2.863 2.095,5.061 4.792,5.061 2.717,0 4.812,-2.198 4.812,-5.061 C 4.812,2.199 2.717,0 0,0 m 0,12.508 c -4.19,0 -7.447,-3.236 -7.447,-7.447 0,-4.231 3.257,-7.446 7.447,-7.446 4.232,0 7.447,3.215 7.447,7.446 0,4.211 -3.215,7.447 -7.447,7.447"
             style="fill:#1d1d1b;fill-opacity:1;fill-rule:nonzero;stroke:none"
             id="path64" />
        </g>
        <g
           id="g66"
           transform="translate(525.9828,295.3199)">
          <path
             d="m 0,0 c -0.332,0 -0.913,0 -1.307,0.083 v 4.19 H 0.29 C 1.846,4.273 2.676,3.257 2.676,2.095 2.676,0.996 1.825,0 0,0 m 3.837,-2.945 c -0.352,0.58 -0.892,1.037 -1.431,1.182 v 0.021 c 1.514,0.331 2.925,2.095 2.925,3.858 0,2.406 -1.846,4.522 -4.688,4.522 H -4.003 L -4.024,6.617 c 0,0 0.104,-1.017 0.104,-2.78 v -8.919 c 0,-1.763 -0.104,-2.779 -0.104,-2.779 l 0.021,-0.021 h 2.779 l 0.021,0.021 c 0,0 -0.104,1.016 -0.104,2.779 v 2.78 c 1.39,0 1.929,-0.27 2.427,-1.058 l 1.182,-1.909 c 0.975,-1.576 1.39,-2.592 1.39,-2.592 l 0.021,-0.021 h 3.319 v 0.021 c 0,0 -0.83,1.016 -1.784,2.592 z"
             style="fill:#1d1d1b;fill-opacity:1;fill-rule:nonzero;stroke:none"
             id="path68" />
        </g>
        <g
           id="g70"
           transform="translate(539.6106,293.3701)">
          <path
             d="m 0,0 2.054,5.123 h 0.02 L 4.294,0 Z M 8.836,-4.377 3.671,7.405 C 3.36,8.131 3.257,8.567 3.257,8.567 L 3.236,8.587 H 0.975 L 0.954,8.567 c 0,0 -0.083,-0.436 -0.394,-1.162 L -4.335,-4.377 c -0.415,-0.995 -0.83,-1.535 -0.83,-1.535 v -0.02 h 2.863 l 0.02,0.02 c 0,0.083 0.063,0.436 0.415,1.307 l 0.892,2.22 h 6.306 l 0.954,-2.22 c 0.311,-0.85 0.498,-1.307 0.498,-1.307 l 0.021,-0.02 h 2.862 v 0.02 c 0,0 -0.373,0.54 -0.83,1.535"
             style="fill:#1d1d1b;fill-opacity:1;fill-rule:nonzero;stroke:none"
             id="path72" />
        </g>
        <g
           id="g74"
           transform="translate(326.7234,309.7367)">
          <path
             d="m 0,0 c 0,0.347 -0.404,0.347 -0.598,0.347 -0.664,0 -1.83,-0.046 -2.528,-0.074 -0.276,-0.01 -0.471,-0.018 -0.516,-0.018 -0.038,0 -0.188,0.006 -0.413,0.014 -0.664,0.025 -2.046,0.078 -3.096,0.078 -0.194,0 -0.598,0 -0.598,-0.347 0,-0.165 0.147,-0.284 0.349,-0.284 0.281,0 0.795,-0.031 1.03,-0.089 1.139,-0.309 1.323,-0.542 1.323,-3.056 v -5.204 c 0,-0.465 -0.181,-0.777 -0.57,-0.983 -0.762,-0.433 -2.343,-0.63 -3.491,-0.63 -3.11,0 -5.824,1.093 -8.067,3.248 -1.128,1.079 -3.261,4.226 -3.261,8.407 0,3.332 1.135,6.209 3.036,7.696 2.258,1.756 4.499,1.998 6.584,1.998 3.861,0 6.405,-1.222 7.213,-2.432 0.531,-0.838 0.624,-1.791 0.637,-1.978 0.029,-0.257 0.062,-0.549 0.318,-0.549 0.352,0 0.381,0.337 0.381,0.744 0,2.223 0.115,3.285 0.177,3.855 0.024,0.223 0.04,0.37 0.04,0.492 0,0.219 -0.156,0.346 -0.47,0.377 -0.822,0.033 -1.896,0.163 -2.499,0.304 -0.103,0.022 -2.541,0.523 -4.772,0.523 -2.396,0 -5.506,-0.221 -8.315,-1.944 -3.278,-2.034 -5.235,-5.831 -5.235,-10.158 0,-4.138 2.011,-7.328 3.732,-8.802 2.542,-2.189 6.002,-3.3 10.284,-3.3 1.924,0 4.676,0.365 6.634,1.392 0.425,0.244 0.455,0.357 0.455,1.74 v 3.429 c 0,1.278 0,2.201 0.062,3.178 0.064,1.101 0.333,1.517 1.076,1.652 0.361,0.06 0.541,0.09 0.749,0.09 C -0.147,-0.284 0,-0.165 0,0"
             style="fill:#1d1d1b;fill-opacity:1;fill-rule:nonzero;stroke:none"
             id="path76" />
        </g>
        <g
           id="g78"
           transform="translate(335.0963,307.997)">
          <path
             d="m 0,0 h -3.878 c 0,0.003 0.002,0.007 0.003,0.011 l 1.806,5.542 c 0.025,0.071 0.045,0.113 0.059,0.137 0.014,-0.024 0.034,-0.066 0.058,-0.139 L -0.004,0.018 C -0.003,0.011 -0.001,0.005 0,0 m 6.15,-6.508 c -0.199,0 -0.497,0.021 -0.793,0.119 -0.449,0.129 -1.002,0.493 -1.7,2.22 -0.893,2.224 -2.784,7.163 -3.913,10.114 -0.453,1.183 -0.781,2.04 -0.87,2.263 -0.24,0.622 -0.341,0.803 -0.545,0.803 -0.203,0 -0.3,-0.185 -0.547,-0.867 l -4.66,-12.748 c -0.394,-1.096 -0.79,-1.753 -1.642,-1.864 -0.166,-0.02 -0.449,-0.04 -0.583,-0.04 -0.171,0 -0.286,-0.09 -0.286,-0.224 0,-0.266 0.332,-0.266 0.491,-0.266 0.653,0 1.375,0.028 1.852,0.046 0.227,0.009 0.395,0.015 0.468,0.015 0.09,0 0.287,-0.01 0.521,-0.021 0.349,-0.018 0.784,-0.04 1.081,-0.04 0.337,0 0.408,0.144 0.408,0.266 0,0.083 -0.039,0.224 -0.306,0.224 H -5.08 c -0.262,0 -0.678,0.134 -0.678,0.494 0,0.36 0.1,0.837 0.282,1.343 l 1.23,3.628 c 0.037,0.093 0.075,0.101 0.111,0.101 h 4.414 c 0.05,0 0.063,-0.005 0.09,-0.058 L 2.277,-6.049 C 2.33,-6.188 2.336,-6.31 2.296,-6.394 2.269,-6.45 2.232,-6.467 2.225,-6.47 2.033,-6.517 2.004,-6.642 2.004,-6.712 c 0,-0.209 0.233,-0.221 0.618,-0.24 l 0.097,-0.005 c 0.914,-0.026 2.059,-0.041 3.225,-0.041 0.34,0 0.512,0.089 0.512,0.266 0,0.149 -0.103,0.224 -0.306,0.224"
             style="fill:#1d1d1b;fill-opacity:1;fill-rule:nonzero;stroke:none"
             id="path80" />
        </g>
        <g
           id="g82"
           transform="translate(362.9745,301.4893)">
          <path
             d="M 0,0 C -0.198,0 -0.724,0 -1.303,0.179 -2.141,0.452 -2.267,1.59 -2.342,2.27 l -1.376,12.604 c -0.034,0.327 -0.089,0.645 -0.346,0.645 -0.229,0 -0.337,-0.243 -0.4,-0.387 L -10.41,2.433 -16.597,15.152 c -0.1,0.22 -0.207,0.367 -0.401,0.367 -0.243,0 -0.3,-0.317 -0.326,-0.459 L -18.802,1.675 -18.81,1.601 C -18.887,0.863 -18.959,0.165 -19.543,0.059 -19.84,0 -19.979,0 -20.139,0 c -0.152,0 -0.306,-0.07 -0.306,-0.204 0,-0.19 0.151,-0.286 0.45,-0.286 0.354,0 0.88,0.025 1.265,0.043 0.22,0.01 0.393,0.018 0.46,0.018 0.051,0 0.184,-0.006 0.366,-0.015 0.407,-0.018 1.022,-0.046 1.543,-0.046 0.141,0 0.471,0 0.471,0.286 0,0.116 -0.115,0.204 -0.266,0.204 -0.123,0 -0.423,0.021 -0.76,0.101 -0.262,0.052 -0.452,0.278 -0.452,0.537 0,0.351 0,0.714 0.02,1.038 l 0.8,9.283 c 0.487,-1.099 2.442,-5.287 2.621,-5.645 l 0.034,-0.067 c 0.561,-1.127 1.915,-3.841 2.368,-4.697 l 0.047,-0.088 c 0.389,-0.736 0.481,-0.912 0.68,-0.912 0.227,0 0.304,0.164 0.628,0.85 L -5.106,11.146 -4.145,0.811 C -4.106,0.463 -4.132,0.236 -4.164,0.179 -4.301,0.146 -4.371,0.066 -4.371,-0.06 c 0,-0.211 0.225,-0.268 0.667,-0.307 0.782,-0.063 3.007,-0.123 3.437,-0.123 0.48,0 0.532,0.2 0.532,0.286 C 0.265,-0.111 0.219,0 0,0"
             style="fill:#1d1d1b;fill-opacity:1;fill-rule:nonzero;stroke:none"
             id="path84" />
        </g>
        <g
           id="g86"
           transform="translate(373.8436,304.0217)">
          <path
             d="m 0,0 c -0.216,0 -0.257,-0.229 -0.288,-0.398 -0.142,-0.829 -0.38,-1.216 -0.879,-1.427 -0.524,-0.221 -1.426,-0.221 -1.965,-0.221 -2.056,0 -2.263,0.285 -2.321,1.615 -0.014,0.313 -0.008,1.662 -0.003,2.646 0.002,0.387 0.003,0.721 0.003,0.92 v 1.837 c 0,0.038 0.007,0.045 0.045,0.045 0.35,0 2.411,-0.042 2.975,-0.104 0.736,-0.076 0.918,-0.375 1,-0.659 0.079,-0.257 0.079,-0.453 0.079,-0.66 0,-0.176 0.097,-0.289 0.247,-0.289 0.248,0 0.248,0.311 0.248,0.498 0,0.136 0.04,0.902 0.083,1.326 0.039,0.426 0.093,0.721 0.129,0.917 0.023,0.124 0.038,0.206 0.038,0.262 0,0.242 -0.143,0.269 -0.205,0.269 -0.122,0 -0.209,-0.099 -0.352,-0.264 L -1.203,6.271 C -1.368,6.087 -1.659,6.051 -2.118,6.013 -2.469,5.982 -4.058,5.971 -5.441,5.967 -5.444,5.971 -5.453,5.992 -5.453,6.079 v 5.762 c 0,0.088 0.018,0.107 0.024,0.107 0.26,0 2.502,-0.021 2.85,-0.062 1.086,-0.12 1.271,-0.355 1.4,-0.648 0.093,-0.222 0.118,-0.552 0.118,-0.712 0,-0.308 0.146,-0.373 0.268,-0.373 0.121,0 0.203,0.104 0.245,0.314 0.028,0.168 0.056,0.608 0.077,0.962 0.011,0.189 0.021,0.35 0.028,0.422 0.037,0.34 0.087,0.562 0.123,0.723 0.026,0.115 0.045,0.198 0.045,0.269 0,0.252 -0.115,0.289 -0.185,0.289 -0.082,0 -0.149,-0.034 -0.209,-0.064 -0.036,-0.018 -0.071,-0.035 -0.107,-0.043 -0.173,-0.043 -0.518,-0.083 -0.878,-0.101 -0.473,-0.021 -4.601,-0.021 -4.776,-0.021 -0.026,0 -0.127,0.004 -0.278,0.01 -0.447,0.017 -1.376,0.052 -2.082,0.052 -0.13,0 -0.435,0 -0.435,-0.268 0,-0.131 0.112,-0.227 0.268,-0.227 0.188,0 0.532,-0.021 0.689,-0.06 0.591,-0.125 0.775,-0.371 0.817,-1.097 0.042,-0.665 0.042,-1.251 0.042,-4.504 V 3.135 c 0,-1.958 0,-3.648 -0.103,-4.517 -0.091,-0.654 -0.197,-0.997 -0.527,-1.063 -0.111,-0.025 -0.392,-0.082 -0.605,-0.082 -0.186,0 -0.268,-0.114 -0.268,-0.226 0,-0.268 0.305,-0.268 0.435,-0.268 0.446,0 1.231,0.031 1.7,0.049 0.185,0.008 0.317,0.013 0.347,0.013 0.182,0 0.44,-0.012 0.797,-0.028 0.809,-0.036 2.165,-0.097 4.359,-0.097 0.814,0 1.06,0 1.226,0.62 0.103,0.432 0.274,1.858 0.274,2.049 C 0.226,-0.26 0.226,0 0,0"
             style="fill:#1d1d1b;fill-opacity:1;fill-rule:nonzero;stroke:none"
             id="path88" />
        </g>
        <g
           id="g90"
           transform="translate(393.8,310.1411)">
          <path
             d="m 0,0 c -0.091,0 -0.144,-0.07 -0.191,-0.132 l -0.025,-0.033 c -0.078,-0.112 -0.182,-0.149 -0.483,-0.174 -0.165,-0.012 -0.329,-0.012 -0.538,-0.012 l -1.895,-0.012 v 0.007 3.707 c 0,0.029 0.004,0.041 0.005,0.032 l 1.866,-0.037 c 0.43,-0.01 0.679,-0.207 0.736,-0.328 0.064,-0.141 0.099,-0.334 0.099,-0.419 0,-0.234 0.155,-0.246 0.187,-0.246 0.07,0 0.16,0.037 0.196,0.218 0.017,0.098 0.032,0.341 0.045,0.556 0.007,0.112 0.012,0.208 0.017,0.25 0.021,0.195 0.049,0.322 0.07,0.415 0.016,0.069 0.028,0.119 0.028,0.165 0,0.124 -0.072,0.211 -0.175,0.211 -0.053,0 -0.097,-0.025 -0.135,-0.046 C -0.213,4.111 -0.234,4.098 -0.26,4.09 -0.333,4.065 -0.47,4.06 -0.628,4.053 L -0.765,4.046 C -1.028,4.035 -3.292,4.035 -3.743,4.035 c -0.015,0 -0.072,0.002 -0.159,0.005 -0.259,0.01 -0.8,0.03 -1.211,0.03 -0.073,0 -0.295,0 -0.295,-0.197 0,-0.1 0.085,-0.175 0.198,-0.175 0.104,0 0.302,-0.012 0.391,-0.034 0.327,-0.069 0.418,-0.192 0.442,-0.598 0.023,-0.384 0.023,-1.089 0.023,-2.973 V -2.04 c 0,-1.13 0,-2.837 -0.059,-3.339 -0.05,-0.36 -0.105,-0.548 -0.273,-0.582 -0.063,-0.013 -0.223,-0.046 -0.342,-0.046 -0.136,0 -0.198,-0.09 -0.198,-0.174 0,-0.198 0.222,-0.198 0.295,-0.198 0.261,0 0.717,0.018 0.99,0.029 0.106,0.005 0.181,0.007 0.198,0.007 0.014,0 0.064,-0.002 0.141,-0.004 0.271,-0.011 0.836,-0.032 1.35,-0.032 0.267,0 0.295,0.139 0.295,0.198 0,0.084 -0.062,0.174 -0.198,0.174 -0.099,0 -0.358,0.023 -0.532,0.048 -0.281,0.037 -0.348,0.216 -0.386,0.578 -0.059,0.504 -0.059,2.211 -0.059,3.341 v 1.03 c 0,0.003 0,0.005 0,0.008 0.46,0 1.89,-0.003 2.162,-0.036 0.321,-0.041 0.493,-0.218 0.546,-0.368 0.04,-0.12 0.054,-0.261 0.065,-0.374 l 0.003,-0.03 c 0,-0.126 0.075,-0.211 0.186,-0.211 0.187,0 0.187,0.216 0.187,0.332 0,0.084 0.024,0.568 0.048,0.803 0.022,0.246 0.053,0.416 0.074,0.529 0.015,0.077 0.023,0.128 0.023,0.159 C 0.162,-0.019 0.049,0 0,0"
             style="fill:#1d1d1b;fill-opacity:1;fill-rule:nonzero;stroke:none"
             id="path92" />
        </g>
        <g
           id="g94"
           transform="translate(384.491,304.8796)">
          <path
             d="M 0,0 V 7.929 C 1.201,7.372 2.186,6.056 2.186,3.87 2.186,1.275 0.965,0.337 0,0 m -1.158,8.23 c 0.281,-0.02 0.562,-0.077 0.836,-0.172 v -8.153 c -0.33,-0.079 -0.601,-0.091 -0.737,-0.091 -0.034,0 -0.066,0.004 -0.099,0.005 z M -2.241,8.153 c 0.24,0.051 0.493,0.08 0.761,0.086 v -8.402 c -0.266,0.03 -0.52,0.087 -0.761,0.17 z M -2.563,0.137 c -1.389,0.644 -2.273,2.201 -2.273,4.219 0,1.92 0.847,3.255 2.273,3.712 z m 1.25,8.72 c -3.553,0 -4.878,-2.969 -4.878,-4.841 0,-2.344 1.504,-4.866 4.805,-4.866 2.862,0 4.939,2.128 4.939,5.06 0,2.78 -1.956,4.647 -4.866,4.647"
             style="fill:#1d1d1b;fill-opacity:1;fill-rule:nonzero;stroke:none"
             id="path96" />
        </g>
        <g
           id="g98"
           transform="translate(402.4102,294.7028)">
          <path
             d="m 0,0 c -0.178,0.727 -0.423,1.724 -0.423,2.258 0,0.18 0,0.451 -0.247,0.451 -0.071,0 -0.172,-0.02 -0.326,-0.051 C -1.414,2.573 -2.192,2.417 -3.565,2.417 h -101.597 c -0.359,0 -1.483,0.061 -2.303,0.145 -0.49,0.037 -0.774,0.163 -0.982,0.255 -0.122,0.055 -0.219,0.097 -0.313,0.097 -0.169,0 -0.267,-0.256 -0.376,-0.59 l -0.014,-0.042 c -0.035,-0.139 -0.647,-2.747 -0.647,-3.067 0,-0.337 0.189,-0.363 0.247,-0.363 0.176,0 0.292,0.107 0.385,0.353 0.088,0.207 0.172,0.402 0.488,0.891 0.442,0.662 1.093,0.863 2.903,0.891 l 4.228,0.058 V -11.23 c 0,-2.746 0,-6.897 -0.145,-8.118 -0.129,-0.935 -0.283,-1.427 -0.771,-1.525 -0.324,-0.072 -0.644,-0.115 -0.857,-0.115 -0.246,0 -0.333,-0.149 -0.333,-0.276 0,-0.334 0.383,-0.334 0.567,-0.334 0.626,0 1.725,0.043 2.382,0.07 0.26,0.01 0.444,0.017 0.486,0.017 0.034,0 0.157,-0.004 0.347,-0.011 0.654,-0.025 2.013,-0.076 3.252,-0.076 0.47,0 0.568,0.182 0.568,0.334 0,0.127 -0.088,0.276 -0.335,0.276 -0.251,0 -0.884,0.056 -1.303,0.116 -0.765,0.102 -0.961,0.613 -1.055,1.522 -0.145,1.223 -0.145,5.374 -0.145,8.12 V 1.046 L -4.68,0.987 c 2.52,-0.052 4.095,-0.621 4.215,-1.517 l 0.029,-0.32 c 0.024,-0.335 0.064,-0.591 0.334,-0.591 0.071,0 0.305,0.035 0.305,0.481 C 0.203,-0.833 0.13,-0.528 0,0"
             style="fill:#1d1d1b;fill-opacity:1;fill-rule:nonzero;stroke:none"
             id="path100" />
        </g>
        <g
           id="g102"
           transform="translate(323.6902,276.2652)">
          <path
             d="m 0,0 c -0.178,0 -0.634,0.041 -0.94,0.083 -0.536,0.072 -0.674,0.434 -0.74,1.079 -0.105,0.884 -0.105,2.6 -0.105,4.587 v 3.73 c 0,3.301 0,3.896 0.042,4.572 0.042,0.754 0.213,1.025 0.7,1.115 0.248,0.042 0.372,0.062 0.514,0.062 0.156,0 0.27,0.096 0.27,0.228 0,0.269 -0.308,0.269 -0.44,0.269 -0.453,0 -1.249,-0.032 -1.724,-0.05 -0.189,-0.007 -0.322,-0.013 -0.353,-0.013 -0.026,0 -0.128,0.004 -0.281,0.01 -0.453,0.017 -1.396,0.053 -2.114,0.053 -0.132,0 -0.439,0 -0.439,-0.269 0,-0.132 0.114,-0.228 0.269,-0.228 0.191,0 0.539,-0.021 0.7,-0.061 0.603,-0.128 0.79,-0.378 0.832,-1.117 0.043,-0.675 0.043,-1.27 0.043,-4.571 V 9.034 C -3.766,9.019 -3.768,9.011 -3.768,9.01 -3.771,9.009 -3.779,9.007 -3.793,9.007 h -8.986 c -0.015,0 -0.021,10e-4 -0.024,10e-4 -10e-4,0.003 -0.003,0.011 -0.003,0.026 v 0.445 c 0,3.301 0,3.896 0.042,4.572 0.043,0.754 0.213,1.025 0.701,1.115 0.247,0.042 0.371,0.062 0.513,0.062 0.157,0 0.27,0.096 0.27,0.228 0,0.269 -0.308,0.269 -0.439,0.269 -0.455,0 -1.251,-0.032 -1.726,-0.05 -0.189,-0.007 -0.321,-0.013 -0.351,-0.013 -0.026,0 -0.128,0.004 -0.281,0.01 -0.453,0.017 -1.397,0.053 -2.114,0.053 -0.132,0 -0.44,0 -0.44,-0.269 0,-0.132 0.114,-0.228 0.27,-0.228 0.191,0 0.539,-0.021 0.699,-0.061 0.603,-0.128 0.79,-0.378 0.833,-1.117 0.042,-0.675 0.042,-1.27 0.042,-4.571 v -3.73 c 0,-1.987 0,-3.703 -0.105,-4.585 -0.089,-0.65 -0.201,-1.015 -0.536,-1.082 C -15.541,0.057 -15.827,0 -16.043,0 c -0.187,0 -0.27,-0.114 -0.27,-0.227 0,-0.271 0.308,-0.271 0.44,-0.271 0.453,0 1.25,0.033 1.726,0.051 0.188,0.008 0.32,0.013 0.351,0.013 0.024,0 0.113,-0.003 0.25,-0.008 0.474,-0.018 1.458,-0.056 2.356,-0.056 0.382,0 0.44,0.17 0.44,0.271 0,0.105 -0.071,0.227 -0.27,0.227 -0.178,0 -0.635,0.041 -0.941,0.083 -0.536,0.072 -0.673,0.434 -0.74,1.079 -0.105,0.884 -0.105,2.6 -0.105,4.587 v 2.225 c 0,0.016 0.002,0.023 10e-4,0.024 0.004,10e-4 0.011,0.003 0.026,0.003 h 8.986 c 0.027,0 0.027,-0.016 0.027,-0.027 V 5.749 c 0,-1.987 0,-3.703 -0.105,-4.585 C -3.963,0.499 -4.071,0.15 -4.407,0.082 -4.521,0.057 -4.808,0 -5.023,0 c -0.186,0 -0.27,-0.114 -0.27,-0.227 0,-0.271 0.308,-0.271 0.44,-0.271 0.454,0 1.25,0.033 1.726,0.051 0.188,0.008 0.32,0.013 0.351,0.013 0.024,0 0.114,-0.003 0.252,-0.008 0.473,-0.018 1.458,-0.056 2.355,-0.056 0.382,0 0.44,0.17 0.44,0.271 C 0.271,-0.122 0.2,0 0,0"
             style="fill:#1d1d1b;fill-opacity:1;fill-rule:nonzero;stroke:none"
             id="path104" />
        </g>
        <g
           id="g106"
           transform="translate(329.3619,290.831)">
          <path
             d="m 0,0 c 0,0.08 0.034,0.132 0.098,0.158 0.199,0.059 0.754,0.123 1.391,0.123 2.233,0 3.566,-1.547 3.566,-4.138 0,-1.456 -0.467,-2.645 -1.249,-3.182 C 3.31,-7.384 2.694,-7.424 2.273,-7.424 1.375,-7.424 0.399,-7.278 0.1,-7.1 0.029,-7.057 0,-7.008 0,-6.931 Z m 12.192,-14.566 c -0.125,0 -0.416,0 -0.811,0.062 -0.562,0.09 -1.435,0.343 -2.528,1.496 -1.076,1.15 -2.328,2.757 -3.777,4.617 l -0.569,0.729 c 1.725,1.611 2.529,3.172 2.529,4.907 0,1.485 -0.946,2.561 -1.504,2.963 C 4.363,1.047 2.886,1.159 1.595,1.159 1.182,1.159 0.386,1.135 -0.194,1.116 -0.542,1.105 -0.82,1.096 -0.906,1.096 c -0.026,0 -0.128,0.004 -0.281,0.01 -0.453,0.017 -1.396,0.053 -2.113,0.053 -0.132,0 -0.44,0 -0.44,-0.269 0,-0.132 0.114,-0.228 0.27,-0.228 0.191,0 0.54,-0.021 0.699,-0.061 0.664,-0.141 0.794,-0.458 0.833,-1.117 0.042,-0.674 0.042,-1.269 0.042,-4.57 v -3.731 c 0,-1.986 0,-3.703 -0.105,-4.585 -0.092,-0.664 -0.2,-1.014 -0.537,-1.081 -0.113,-0.026 -0.399,-0.083 -0.614,-0.083 -0.187,0 -0.27,-0.114 -0.27,-0.227 0,-0.27 0.308,-0.27 0.439,-0.27 0.541,0 1.565,0.045 1.901,0.06 L -0.991,-15 c 0.024,0 0.114,-0.003 0.252,-0.008 0.474,-0.017 1.459,-0.055 2.355,-0.055 0.383,0 0.44,0.169 0.44,0.27 0,0.105 -0.071,0.227 -0.271,0.227 -0.177,0 -0.633,0.041 -0.94,0.084 -0.536,0.072 -0.673,0.433 -0.74,1.078 C 0,-12.52 0,-10.803 0,-8.817 v 0.509 c 0,0.069 0.016,0.069 0.046,0.07 l 2.609,-0.043 c 0.091,0 0.131,-0.025 0.196,-0.088 0.179,-0.233 0.465,-0.627 0.796,-1.084 0.446,-0.615 1.001,-1.381 1.514,-2.053 l 0.268,-0.354 c 1.063,-1.402 1.765,-2.328 2.624,-2.788 0.584,-0.314 1.147,-0.415 2.316,-0.415 h 1.505 c 0.257,0 0.609,0 0.609,0.27 0,0.123 -0.134,0.227 -0.291,0.227"
             style="fill:#1d1d1b;fill-opacity:1;fill-rule:nonzero;stroke:none"
             id="path108" />
        </g>
        <g
           id="g110"
           transform="translate(374.5816,291.9904)">
          <path
             d="m 0,0 c -0.575,0 -1.081,-0.028 -1.417,-0.046 -0.174,-0.01 -0.306,-0.017 -0.384,-0.017 -0.077,0 -0.238,0.007 -0.454,0.016 C -2.698,-0.028 -3.365,0 -4.006,0 -4.201,0 -4.53,0 -4.53,-0.249 c 0,-0.164 0.091,-0.248 0.27,-0.248 0.153,0 0.635,-0.019 1.014,-0.103 0.575,-0.148 0.73,-0.543 0.752,-1.918 l 0.227,-10.508 c -0.361,0.384 -0.958,1.039 -1.683,1.834 -0.944,1.036 -2.119,2.325 -3.225,3.51 -3.278,3.512 -6.422,6.909 -6.741,7.271 -0.055,0.054 -0.12,0.126 -0.188,0.202 -0.275,0.305 -0.467,0.505 -0.625,0.505 -0.285,0 -0.334,-0.357 -0.334,-1.159 l -0.021,-12.144 c 0,-1.936 -0.115,-2.47 -0.567,-2.596 -0.271,-0.091 -0.62,-0.122 -0.837,-0.122 -0.199,0 -0.27,-0.118 -0.27,-0.227 0,-0.271 0.286,-0.271 0.439,-0.271 0.662,0 1.3,0.032 1.682,0.05 0.171,0.008 0.295,0.014 0.353,0.014 0.054,0 0.159,-0.005 0.311,-0.012 0.4,-0.02 1.069,-0.052 1.936,-0.052 0.143,0 0.481,0 0.481,0.271 0,0.109 -0.071,0.227 -0.27,0.227 -0.058,0 -0.577,0.003 -1.031,0.122 -0.466,0.139 -0.71,0.542 -0.756,2.366 l -0.266,9.877 c 0.642,-0.72 2.895,-3.234 5.349,-5.88 2.253,-2.422 5.307,-5.537 5.535,-5.745 1.176,-1.176 1.403,-1.386 1.617,-1.386 0.259,0 0.292,0.18 0.292,1.605 l 0.042,12.419 c 0,1.29 0.088,1.658 0.708,1.79 0.242,0.06 0.382,0.06 0.484,0.06 0.23,0 0.334,0.125 0.334,0.248 C 0.482,0 0.18,0 0,0"
             style="fill:#1d1d1b;fill-opacity:1;fill-rule:nonzero;stroke:none"
             id="path112" />
        </g>
        <g
           id="g114"
           transform="translate(386.7152,278.8297)">
          <path
             d="m 0,0 c -0.217,0 -0.259,-0.231 -0.29,-0.401 -0.143,-0.843 -0.385,-1.236 -0.893,-1.45 -0.533,-0.226 -1.448,-0.226 -1.995,-0.226 -2.091,0 -2.3,0.29 -2.359,1.642 -0.015,0.318 -0.008,1.687 -0.003,2.686 0.002,0.393 0.003,0.731 0.003,0.934 v 1.864 c 0,0.043 0.01,0.049 0.048,0.049 0.356,0 2.451,-0.042 3.021,-0.106 0.748,-0.076 0.933,-0.382 1.016,-0.672 0.081,-0.26 0.081,-0.459 0.081,-0.67 0,-0.176 0.097,-0.29 0.248,-0.29 0.248,0 0.248,0.315 0.248,0.503 0,0.137 0.041,0.913 0.085,1.347 0.039,0.433 0.095,0.733 0.131,0.931 0.023,0.125 0.039,0.208 0.039,0.265 0,0.244 -0.144,0.27 -0.206,0.27 -0.124,0 -0.211,-0.101 -0.356,-0.267 L -1.219,6.367 C -1.375,6.193 -1.621,6.147 -2.15,6.103 -2.506,6.072 -4.119,6.06 -5.525,6.058 -5.528,6.062 -5.537,6.084 -5.537,6.173 v 5.849 c 0,0.092 0.019,0.112 0.027,0.112 0.252,0 2.539,-0.022 2.893,-0.063 1.104,-0.123 1.292,-0.362 1.423,-0.66 0.094,-0.225 0.119,-0.561 0.119,-0.724 0,-0.311 0.147,-0.376 0.269,-0.376 0.123,0 0.206,0.106 0.248,0.317 0.028,0.168 0.056,0.612 0.077,0.968 0.012,0.195 0.023,0.362 0.03,0.437 0.037,0.346 0.088,0.571 0.125,0.735 0.026,0.116 0.045,0.2 0.045,0.271 0,0.253 -0.116,0.292 -0.185,0.292 -0.084,0 -0.152,-0.035 -0.212,-0.066 -0.037,-0.019 -0.072,-0.036 -0.109,-0.044 -0.173,-0.043 -0.524,-0.084 -0.891,-0.103 -0.48,-0.021 -4.671,-0.021 -4.849,-0.021 -0.026,0 -0.129,0.004 -0.282,0.01 -0.453,0.018 -1.397,0.054 -2.113,0.054 -0.131,0 -0.44,0 -0.44,-0.27 0,-0.132 0.114,-0.227 0.27,-0.227 0.191,0 0.539,-0.022 0.7,-0.062 0.664,-0.141 0.794,-0.458 0.832,-1.117 0.042,-0.674 0.042,-1.269 0.042,-4.57 v -3.73 c 0,-1.987 0,-3.704 -0.105,-4.586 -0.092,-0.664 -0.199,-1.014 -0.537,-1.081 -0.112,-0.025 -0.399,-0.082 -0.614,-0.082 -0.186,0 -0.27,-0.115 -0.27,-0.228 0,-0.27 0.309,-0.27 0.44,-0.27 0.453,0 1.249,0.032 1.724,0.051 0.19,0.007 0.323,0.013 0.353,0.013 0.185,0 0.446,-0.012 0.809,-0.029 0.822,-0.036 2.198,-0.098 4.426,-0.098 0.824,0 1.073,0 1.241,0.628 0.111,0.461 0.279,1.912 0.279,2.079 C 0.228,-0.262 0.228,0 0,0"
             style="fill:#1d1d1b;fill-opacity:1;fill-rule:nonzero;stroke:none"
             id="path116" />
        </g>
        <g
           id="g118"
           transform="translate(394.9658,285.0388)">
          <path
             d="m 0,0 -0.592,0.465 c -2.049,1.678 -2.549,2.362 -2.549,3.482 0,1.411 1.007,2.359 2.507,2.359 1.786,0 2.385,-0.749 2.561,-1.072 C 2.042,5.024 2.169,4.467 2.191,4.211 2.21,4.058 2.237,3.848 2.459,3.848 c 0.249,0 0.249,0.367 0.249,0.587 0,1.13 0.053,1.802 0.075,2.088 0.006,0.083 0.011,0.135 0.011,0.159 0,0.22 -0.168,0.248 -0.313,0.248 -0.15,0 -0.303,0.016 -0.718,0.104 -0.61,0.146 -1.244,0.214 -1.995,0.214 -2.726,0 -4.488,-1.537 -4.488,-3.914 0,-1.432 0.475,-2.775 2.792,-4.677 l 0.955,-0.784 c 1.884,-1.556 2.4,-2.359 2.4,-3.738 0,-1.35 -1.007,-2.718 -2.93,-2.718 -0.787,0 -2.658,0.203 -3.039,2.083 -0.061,0.285 -0.061,0.573 -0.061,0.763 0,0.124 0,0.333 -0.249,0.333 -0.229,0 -0.255,-0.28 -0.269,-0.433 -0.004,-0.065 -0.011,-0.148 -0.018,-0.248 -0.033,-0.428 -0.089,-1.144 -0.089,-2.005 0,-0.561 0.015,-0.715 0.374,-0.895 0.804,-0.392 1.748,-0.583 2.884,-0.583 1.279,0 2.406,0.314 3.258,0.909 1.36,0.966 1.845,2.492 1.845,3.599 C 3.133,-3.419 2.62,-2.065 0,0"
             style="fill:#1d1d1b;fill-opacity:1;fill-rule:nonzero;stroke:none"
             id="path120" />
        </g>
        <g
           id="g122"
           transform="translate(346.8131,291.1417)">
          <path
             d="m 0,0 c 0.458,0.121 0.947,0.191 1.465,0.211 v -14.81 c -0.515,0.07 -1.004,0.2 -1.465,0.383 z m -0.547,-13.966 c -2.313,1.203 -3.776,3.879 -3.776,7.318 0,3.282 1.402,5.594 3.776,6.475 z M 3.377,-0.11 v -14.454 c -0.453,-0.084 -0.82,-0.1 -1.019,-0.1 -0.118,0 -0.23,0.012 -0.346,0.018 V 0.212 C 2.576,0.188 3.143,0.082 3.694,-0.11 Z m 4.73,-7.386 c 0,-4.868 -2.437,-6.438 -4.182,-6.938 V -0.193 C 6.19,-1.086 8.107,-3.447 8.107,-7.496 M 1.913,1.145 c -6.156,0 -8.45,-5.144 -8.45,-8.387 0,-4.059 2.605,-8.429 8.323,-8.429 4.958,0 8.556,3.688 8.556,8.769 0,4.813 -3.387,8.047 -8.429,8.047"
             style="fill:#1d1d1b;fill-opacity:1;fill-rule:nonzero;stroke:none"
             id="path124" />
        </g>
        <g
           id="g126"
           transform="translate(400.0049,291.8306)">
          <path
             d="m 0,0 v -0.187 h -0.53 v -1.385 h -0.215 v 1.385 H -1.274 V 0 Z"
             style="fill:#1d1d1b;fill-opacity:1;fill-rule:nonzero;stroke:none"
             id="path128" />
        </g>
        <g
           id="g130"
           transform="translate(400.1953,291.8306)">
          <path
             d="M 0,0 H 0.305 L 0.757,-1.329 1.206,0 H 1.508 V -1.572 H 1.305 v 0.928 c 0,0.032 0,0.085 0.002,0.159 0.001,0.075 0.002,0.154 0.002,0.238 L 0.86,-1.572 H 0.65 l -0.453,1.325 v -0.047 c 0,-0.039 0.001,-0.097 0.003,-0.176 0.002,-0.079 0.003,-0.137 0.003,-0.174 V -1.572 H 0 Z"
             style="fill:#1d1d1b;fill-opacity:1;fill-rule:nonzero;stroke:none"
             id="path132" />
        </g>
      </g>
    </g>
  </g>
</svg>
